<svg xmlns="http://www.w3.org/2000/svg" x="0px" y="0px"
width="30" height="30"
viewBox="0 0 172 172"
style=" fill:#000000;"><g fill="none" fill-rule="nonzero" stroke="none" stroke-width="1" stroke-linecap="butt" stroke-linejoin="miter" stroke-miterlimit="10" stroke-dasharray="" stroke-dashoffset="0" font-family="none" font-weight="none" font-size="none" text-anchor="none" style="mix-blend-mode: normal"><path d="M0,172v-172h172v172z" fill="none"></path><g fill="#333333"><path d="M137.6,22.93333h-103.2c-6.33533,0 -11.46667,5.13133 -11.46667,11.46667v103.2c0,6.33533 5.13133,11.46667 11.46667,11.46667h103.2c6.33533,0 11.46667,-5.13133 11.46667,-11.46667v-103.2c0,-6.33533 -5.13133,-11.46667 -11.46667,-11.46667zM65.9792,103.2h-9.83267l-6.5188,-10.87613h-0.45293l-6.56467,10.87613h-9.28227l10.5436,-17.3204l-10.52067,-17.0108h10.1824l6.16333,11.3692h0.45293l6.2092,-11.3692h9.70653l-10.96787,17.10827zM109.85067,103.2h-8.06107v-21.67773h-0.43l-7.6368,19.03467h-5.4008l-7.65973,-19.03467h-0.43v21.67773h-8.0668v-34.33693h10.30853l8.3248,20.984h0.45293l8.30187,-20.984h10.3028v34.33693zM141.2636,103.2h-23.31173v-34.33693h8.72613v27.1244h14.5856z"></path></g></g></svg>